<?xml version="1.0" encoding="utf-8"?>
<!-- Generator: Adobe Illustrator 24.2.1, SVG Export Plug-In . SVG Version: 6.00 Build 0)  -->
<svg version="1.1" id="Camada_1" xmlns="http://www.w3.org/2000/svg" xmlns:xlink="http://www.w3.org/1999/xlink" x="0px" y="0px"
	 viewBox="0 0 500 500" style="enable-background:new 0 0 500 500;" xml:space="preserve">
<style type="text/css">
	.st0{fill:#DCFFE4;}
</style>
<g>
	<path class="st0" d="M250.67,76.67l40.09,123.38l4.04,12.44h13.08H437.6l-104.95,76.25l-10.58,7.69l4.04,12.44l40.09,123.38
		l-104.95-76.25l-10.58-7.69l-10.58,7.69l-104.95,76.25l40.09-123.38l4.04-12.44l-10.58-7.69L63.73,212.49h129.73h13.08l4.04-12.44
		L250.67,76.67 M250.67,32.46c-2.52,0-5.03,1.45-5.97,4.34l-51.24,157.69H27.65c-6.08,0-8.61,7.78-3.69,11.36L158.1,303.3
		l-51.24,157.69c-1.43,4.41,2.07,8.25,5.99,8.25c1.23,0,2.5-0.38,3.67-1.23l134.14-97.46l134.14,97.46
		c1.17,0.85,2.44,1.23,3.67,1.23c3.92,0,7.42-3.84,5.99-8.25L343.23,303.3l134.14-97.46c4.92-3.57,2.39-11.36-3.69-11.36H307.87
		L256.64,36.79C255.7,33.9,253.18,32.46,250.67,32.46L250.67,32.46z"/>
</g>
</svg>
